<svg xmlns="http://www.w3.org/2000/svg" xmlns:xlink="http://www.w3.org/1999/xlink" width="1326" zoomAndPan="magnify" viewBox="0 0 994.5 1001.249969" height="1335" preserveAspectRatio="xMidYMid meet" version="1.0"><defs><g/><clipPath id="1260b556a7"><path d="M 0.121094 0 L 993.878906 0 L 993.878906 1000.5 L 0.121094 1000.5 Z M 0.121094 0 " clip-rule="nonzero"/></clipPath><clipPath id="c316eb2cc6"><path d="M 0.121094 0 L 993.320312 0 L 993.320312 1000.496094 L 0.121094 1000.496094 Z M 0.121094 0 " clip-rule="nonzero"/></clipPath><clipPath id="e5232e359a"><path d="M 0.121094 0 L 993.320312 0 L 993.320312 1000.496094 L 0.121094 1000.496094 Z M 0.121094 0 " clip-rule="nonzero"/></clipPath><clipPath id="e39df2bfea"><rect x="0" width="994" y="0" height="1001"/></clipPath><clipPath id="e37dcaa7c8"><path d="M 344 472 L 638 472 L 638 716 L 344 716 Z M 344 472 " clip-rule="nonzero"/></clipPath><clipPath id="e816aba811"><path d="M 408.527344 447.121094 L 682.847656 580.023438 L 615.207031 719.632812 L 340.890625 586.734375 Z M 408.527344 447.121094 " clip-rule="nonzero"/></clipPath><clipPath id="8460dc20b4"><path d="M 465.414062 474.679688 L 625.59375 552.285156 C 634.050781 556.382812 638.9375 565.433594 637.726562 574.753906 L 620.6875 705.699219 C 620.214844 709.316406 618.035156 712.484375 614.828125 714.214844 C 611.617188 715.949219 607.773438 716.035156 604.492188 714.445312 L 351.234375 591.746094 C 347.953125 590.15625 345.636719 587.085938 345.007812 583.496094 C 344.378906 579.902344 345.515625 576.226562 348.058594 573.617188 L 440.261719 479.085938 C 446.824219 472.355469 456.953125 470.582031 465.414062 474.679688 Z M 465.414062 474.679688 " clip-rule="nonzero"/></clipPath><clipPath id="85049bb6af"><path d="M 0.265625 0 L 294 0 L 294 244 L 0.265625 244 Z M 0.265625 0 " clip-rule="nonzero"/></clipPath><clipPath id="d1019eb0da"><path d="M 64.527344 -24.878906 L 338.847656 108.023438 L 271.207031 247.632812 L -3.109375 114.734375 Z M 64.527344 -24.878906 " clip-rule="nonzero"/></clipPath><clipPath id="0e06a8a2a6"><path d="M 121.414062 2.679688 L 281.59375 80.285156 C 290.050781 84.382812 294.9375 93.433594 293.726562 102.753906 L 276.6875 233.699219 C 276.214844 237.316406 274.035156 240.484375 270.828125 242.214844 C 267.617188 243.949219 263.773438 244.035156 260.492188 242.445312 L 7.234375 119.746094 C 3.953125 118.15625 1.636719 115.085938 1.007812 111.496094 C 0.378906 107.902344 1.515625 104.226562 4.058594 101.617188 L 96.261719 7.085938 C 102.824219 0.355469 112.953125 -1.417969 121.414062 2.679688 Z M 121.414062 2.679688 " clip-rule="nonzero"/></clipPath><clipPath id="d69b13a6d9"><rect x="0" width="294" y="0" height="244"/></clipPath><clipPath id="cd884d3110"><path d="M 527 322 L 669 322 L 669 471 L 527 471 Z M 527 322 " clip-rule="nonzero"/></clipPath><clipPath id="5d91ccb6b9"><path d="M 573.652344 295.296875 L 713.554688 350.632812 L 665.210938 472.859375 L 525.308594 417.523438 Z M 573.652344 295.296875 " clip-rule="nonzero"/></clipPath><clipPath id="781b2814b3"><path d="M 648.300781 329.195312 L 668.140625 461.203125 C 668.550781 463.949219 667.464844 466.707031 665.292969 468.4375 C 663.117188 470.164062 660.183594 470.601562 657.601562 469.578125 L 532.894531 420.253906 C 530.308594 419.234375 528.46875 416.910156 528.066406 414.160156 C 527.660156 411.410156 528.757812 408.65625 530.9375 406.933594 L 635.707031 324.214844 C 637.898438 322.484375 640.84375 322.050781 643.4375 323.078125 C 646.03125 324.105469 647.886719 326.433594 648.300781 329.195312 Z M 648.300781 329.195312 " clip-rule="nonzero"/></clipPath><clipPath id="d5747e38e8"><path d="M 0.488281 0 L 141.742188 0 L 141.742188 148.765625 L 0.488281 148.765625 Z M 0.488281 0 " clip-rule="nonzero"/></clipPath><clipPath id="e3e5902f1f"><path d="M 46.652344 -26.703125 L 186.554688 28.632812 L 138.210938 150.859375 L -1.691406 95.523438 Z M 46.652344 -26.703125 " clip-rule="nonzero"/></clipPath><clipPath id="fb9e9a8f8c"><path d="M 121.300781 7.195312 L 141.140625 139.203125 C 141.550781 141.949219 140.464844 144.707031 138.292969 146.4375 C 136.117188 148.164062 133.183594 148.601562 130.601562 147.578125 L 5.894531 98.253906 C 3.308594 97.234375 1.46875 94.910156 1.066406 92.160156 C 0.660156 89.410156 1.757812 86.65625 3.9375 84.933594 L 108.707031 2.214844 C 110.898438 0.484375 113.84375 0.0507812 116.4375 1.078125 C 119.03125 2.105469 120.886719 4.433594 121.300781 7.195312 Z M 121.300781 7.195312 " clip-rule="nonzero"/></clipPath><clipPath id="0fffd1f400"><rect x="0" width="142" y="0" height="149"/></clipPath><clipPath id="5f6ef2dd80"><path d="M 311 93 L 699 93 L 699 557 L 311 557 Z M 311 93 " clip-rule="nonzero"/></clipPath><clipPath id="8f48e59e33"><path d="M 313.265625 557.386719 L 224.078125 184.503906 L 613.234375 91.425781 L 702.421875 464.304688 Z M 313.265625 557.386719 " clip-rule="nonzero"/></clipPath><clipPath id="a419ea3390"><path d="M 613.859375 98.117188 L 698.535156 452.132812 C 700.171875 458.976562 695.953125 465.851562 689.109375 467.488281 L 318.257812 556.191406 C 316.226562 556.675781 314.101562 555.878906 312.894531 554.175781 C 311.6875 552.46875 311.636719 550.203125 312.765625 548.445312 L 603.996094 96.4375 C 605.175781 94.605469 607.335938 93.652344 609.484375 94.019531 C 611.632812 94.386719 613.355469 96 613.859375 98.117188 Z M 613.859375 98.117188 " clip-rule="nonzero"/></clipPath><clipPath id="4fe5d8a45b"><path d="M 0.410156 0.53125 L 388 0.53125 L 388 463.863281 L 0.410156 463.863281 Z M 0.410156 0.53125 " clip-rule="nonzero"/></clipPath><clipPath id="f68b199594"><path d="M 2.265625 464.386719 L -86.921875 91.503906 L 302.234375 -1.574219 L 391.421875 371.304688 Z M 2.265625 464.386719 " clip-rule="nonzero"/></clipPath><clipPath id="0f6f701d2a"><path d="M 302.859375 5.117188 L 387.535156 359.132812 C 389.171875 365.976562 384.953125 372.851562 378.109375 374.488281 L 7.257812 463.191406 C 5.226562 463.675781 3.101562 462.878906 1.894531 461.175781 C 0.6875 459.46875 0.636719 457.203125 1.765625 455.445312 L 292.996094 3.4375 C 294.175781 1.605469 296.335938 0.652344 298.484375 1.019531 C 300.632812 1.386719 302.355469 3 302.859375 5.117188 Z M 302.859375 5.117188 " clip-rule="nonzero"/></clipPath><clipPath id="1e5a0f8c6f"><rect x="0" width="388" y="0" height="464"/></clipPath><clipPath id="3d1f9978ef"><path d="M 418 411 L 628 411 L 628 583 L 418 583 Z M 418 411 " clip-rule="nonzero"/></clipPath><clipPath id="76727c5af9"><path d="M 446.027344 399.636719 L 656.34375 445.949219 L 625.710938 585.070312 L 415.394531 538.761719 Z M 446.027344 399.636719 " clip-rule="nonzero"/></clipPath><clipPath id="bc4e27ad6e"><path d="M 503.96875 412.394531 L 598.421875 433.195312 C 607.601562 435.214844 614.457031 442.882812 615.441406 452.230469 L 627.882812 570.261719 C 628.265625 573.886719 626.878906 577.476562 624.164062 579.90625 C 621.445312 582.335938 617.722656 583.3125 614.164062 582.527344 L 426.960938 541.308594 C 423.398438 540.523438 420.433594 538.074219 418.988281 534.726562 C 417.539062 531.382812 417.792969 527.542969 419.660156 524.414062 L 480.527344 422.523438 C 485.347656 414.453125 494.789062 410.375 503.96875 412.394531 Z M 503.96875 412.394531 " clip-rule="nonzero"/></clipPath><clipPath id="b9769eff76"><path d="M 0 0 L 210 0 L 210 172 L 0 172 Z M 0 0 " clip-rule="nonzero"/></clipPath><clipPath id="ecfeb158f6"><path d="M 28.027344 -11.363281 L 238.34375 34.949219 L 207.710938 174.070312 L -2.605469 127.761719 Z M 28.027344 -11.363281 " clip-rule="nonzero"/></clipPath><clipPath id="65089706e7"><path d="M 85.96875 1.394531 L 180.421875 22.195312 C 189.601562 24.214844 196.457031 31.882812 197.441406 41.230469 L 209.882812 159.261719 C 210.265625 162.886719 208.878906 166.476562 206.164062 168.90625 C 203.445312 171.335938 199.722656 172.3125 196.164062 171.527344 L 8.960938 130.308594 C 5.398438 129.523438 2.433594 127.074219 0.988281 123.726562 C -0.460938 120.382812 -0.207031 116.542969 1.660156 113.414062 L 62.527344 11.523438 C 67.347656 3.453125 76.789062 -0.625 85.96875 1.394531 Z M 85.96875 1.394531 " clip-rule="nonzero"/></clipPath><clipPath id="4575c7efe4"><rect x="0" width="210" y="0" height="172"/></clipPath><clipPath id="92dbfa39ac"><path d="M 513 237 L 616 237 L 616 362 L 513 362 Z M 513 237 " clip-rule="nonzero"/></clipPath><clipPath id="5c28408d71"><path d="M 529.09375 230.316406 L 631.480469 244.976562 L 614.644531 362.546875 L 512.257812 347.886719 Z M 529.09375 230.316406 " clip-rule="nonzero"/></clipPath><clipPath id="3930ff28ab"><path d="M 585.160156 241.960938 L 615.367188 350.089844 C 616.167969 352.957031 615.464844 356.03125 613.503906 358.265625 C 611.542969 360.5 608.585938 361.59375 605.640625 361.171875 L 521.285156 349.09375 C 518.34375 348.671875 515.808594 346.792969 514.554688 344.097656 C 513.300781 341.398438 513.488281 338.253906 515.0625 335.730469 L 574.398438 240.421875 C 575.644531 238.421875 577.953125 237.347656 580.28125 237.683594 C 582.613281 238.015625 584.527344 239.695312 585.160156 241.960938 Z M 585.160156 241.960938 " clip-rule="nonzero"/></clipPath><clipPath id="ee45ab1c75"><path d="M 0.0976562 0.183594 L 103 0.183594 L 103 124.648438 L 0.0976562 124.648438 Z M 0.0976562 0.183594 " clip-rule="nonzero"/></clipPath><clipPath id="e4b5594842"><path d="M 16.09375 -6.683594 L 118.480469 7.976562 L 101.644531 125.546875 L -0.742188 110.886719 Z M 16.09375 -6.683594 " clip-rule="nonzero"/></clipPath><clipPath id="8b7123d331"><path d="M 72.160156 4.960938 L 102.367188 113.089844 C 103.167969 115.957031 102.464844 119.03125 100.503906 121.265625 C 98.542969 123.5 95.585938 124.59375 92.640625 124.171875 L 8.285156 112.09375 C 5.34375 111.671875 2.808594 109.792969 1.554688 107.097656 C 0.300781 104.398438 0.488281 101.253906 2.0625 98.730469 L 61.398438 3.421875 C 62.644531 1.421875 64.953125 0.347656 67.28125 0.683594 C 69.613281 1.015625 71.527344 2.695312 72.160156 4.960938 Z M 72.160156 4.960938 " clip-rule="nonzero"/></clipPath><clipPath id="d8c6ad6508"><rect x="0" width="103" y="0" height="125"/></clipPath><clipPath id="320d098ed8"><rect x="0" width="243" y="0" height="215"/></clipPath><clipPath id="197a868054"><path d="M 506 304 L 545 304 L 545 341 L 506 341 Z M 506 304 " clip-rule="nonzero"/></clipPath><clipPath id="0fa4d9e6af"><path d="M 506.3125 326.210938 L 524.730469 304.410156 L 553.96875 329.113281 L 535.550781 350.914062 Z M 506.3125 326.210938 " clip-rule="nonzero"/></clipPath><clipPath id="2ecbf57238"><path d="M 544.382812 340.039062 L 506.871094 326.636719 C 506.710938 326.578125 506.589844 326.445312 506.542969 326.28125 C 506.5 326.117188 506.539062 325.941406 506.648438 325.8125 L 524.390625 304.808594 C 524.503906 304.679688 524.667969 304.609375 524.839844 304.628906 C 525.007812 304.644531 525.160156 304.742188 525.242188 304.890625 L 544.722656 339.636719 C 544.777344 339.738281 544.765625 339.867188 544.691406 339.953125 C 544.613281 340.042969 544.492188 340.078125 544.382812 340.039062 Z M 544.382812 340.039062 " clip-rule="nonzero"/></clipPath><clipPath id="f2e3f0dbb8"><path d="M 0.382812 0.570312 L 38.996094 0.570312 L 38.996094 36.304688 L 0.382812 36.304688 Z M 0.382812 0.570312 " clip-rule="nonzero"/></clipPath><clipPath id="81966170d9"><path d="M 0.3125 22.210938 L 18.730469 0.410156 L 47.96875 25.113281 L 29.550781 46.914062 Z M 0.3125 22.210938 " clip-rule="nonzero"/></clipPath><clipPath id="53e3d56ba1"><path d="M 38.382812 36.039062 L 0.871094 22.636719 C 0.710938 22.578125 0.589844 22.445312 0.542969 22.28125 C 0.5 22.117188 0.539062 21.941406 0.648438 21.8125 L 18.390625 0.808594 C 18.503906 0.679688 18.667969 0.609375 18.839844 0.628906 C 19.007812 0.644531 19.160156 0.742188 19.242188 0.890625 L 38.722656 35.636719 C 38.777344 35.738281 38.765625 35.867188 38.691406 35.953125 C 38.613281 36.042969 38.492188 36.078125 38.382812 36.039062 Z M 38.382812 36.039062 " clip-rule="nonzero"/></clipPath><clipPath id="e424e4cc8b"><rect x="0" width="39" y="0" height="37"/></clipPath><clipPath id="99495b17ef"><path d="M 514 279 L 552 279 L 552 316 L 514 316 Z M 514 279 " clip-rule="nonzero"/></clipPath><clipPath id="f333900a3f"><path d="M 513.957031 308.386719 L 538.480469 279.359375 L 563.890625 300.828125 L 539.367188 329.855469 Z M 513.957031 308.386719 " clip-rule="nonzero"/></clipPath><clipPath id="56b307355b"><path d="M 551.207031 315.445312 L 514.523438 308.722656 C 514.371094 308.695312 514.246094 308.585938 514.191406 308.441406 C 514.140625 308.296875 514.167969 308.132812 514.269531 308.015625 L 538.195312 279.695312 C 538.292969 279.578125 538.449219 279.523438 538.601562 279.550781 C 538.753906 279.578125 538.882812 279.683594 538.933594 279.828125 L 551.6875 314.875 C 551.742188 315.019531 551.710938 315.183594 551.613281 315.300781 C 551.515625 315.417969 551.359375 315.472656 551.207031 315.445312 Z M 551.207031 315.445312 " clip-rule="nonzero"/></clipPath><clipPath id="51ed44bf35"><path d="M 0.0585938 0.390625 L 37.949219 0.390625 L 37.949219 36.605469 L 0.0585938 36.605469 Z M 0.0585938 0.390625 " clip-rule="nonzero"/></clipPath><clipPath id="3c4f056f7f"><path d="M -0.0429688 29.386719 L 24.480469 0.359375 L 49.890625 21.828125 L 25.367188 50.855469 Z M -0.0429688 29.386719 " clip-rule="nonzero"/></clipPath><clipPath id="f5a341f272"><path d="M 37.207031 36.445312 L 0.523438 29.722656 C 0.371094 29.695312 0.246094 29.585938 0.191406 29.441406 C 0.140625 29.296875 0.167969 29.132812 0.269531 29.015625 L 24.195312 0.695312 C 24.292969 0.578125 24.449219 0.523438 24.601562 0.550781 C 24.753906 0.578125 24.882812 0.683594 24.933594 0.828125 L 37.6875 35.875 C 37.742188 36.019531 37.710938 36.183594 37.613281 36.300781 C 37.515625 36.417969 37.359375 36.472656 37.207031 36.445312 Z M 37.207031 36.445312 " clip-rule="nonzero"/></clipPath><clipPath id="356336f48a"><rect x="0" width="38" y="0" height="37"/></clipPath><clipPath id="087328b209"><path d="M 532 257 L 571 257 L 571 294 L 532 294 Z M 532 257 " clip-rule="nonzero"/></clipPath><clipPath id="9c1c3c27d5"><path d="M 532.308594 286.664062 L 556.832031 257.636719 L 582.246094 279.105469 L 557.722656 308.132812 Z M 532.308594 286.664062 " clip-rule="nonzero"/></clipPath><clipPath id="401a5a5dda"><path d="M 569.5625 293.722656 L 532.875 287 C 532.722656 286.972656 532.597656 286.863281 532.546875 286.71875 C 532.492188 286.574219 532.523438 286.410156 532.625 286.292969 L 556.546875 257.972656 C 556.648438 257.855469 556.804688 257.800781 556.957031 257.828125 C 557.109375 257.851562 557.234375 257.960938 557.289062 258.105469 L 570.042969 293.152344 C 570.09375 293.296875 570.066406 293.457031 569.964844 293.578125 C 569.867188 293.695312 569.710938 293.75 569.5625 293.722656 Z M 569.5625 293.722656 " clip-rule="nonzero"/></clipPath><clipPath id="c0de3ac53f"><path d="M 0.285156 0.566406 L 38.175781 0.566406 L 38.175781 36.78125 L 0.285156 36.78125 Z M 0.285156 0.566406 " clip-rule="nonzero"/></clipPath><clipPath id="564d3a2913"><path d="M 0.308594 29.664062 L 24.832031 0.636719 L 50.246094 22.105469 L 25.722656 51.132812 Z M 0.308594 29.664062 " clip-rule="nonzero"/></clipPath><clipPath id="8de48b768d"><path d="M 37.5625 36.722656 L 0.875 30 C 0.722656 29.972656 0.597656 29.863281 0.546875 29.71875 C 0.492188 29.574219 0.523438 29.410156 0.625 29.292969 L 24.546875 0.972656 C 24.648438 0.855469 24.804688 0.800781 24.957031 0.828125 C 25.109375 0.851562 25.234375 0.960938 25.289062 1.105469 L 38.042969 36.152344 C 38.09375 36.296875 38.066406 36.457031 37.964844 36.578125 C 37.867188 36.695312 37.710938 36.75 37.5625 36.722656 Z M 37.5625 36.722656 " clip-rule="nonzero"/></clipPath><clipPath id="ea9c12d031"><rect x="0" width="39" y="0" height="37"/></clipPath><clipPath id="7f2d15e950"><path d="M 549 241 L 588 241 L 588 277 L 549 277 Z M 549 241 " clip-rule="nonzero"/></clipPath><clipPath id="e4fc3265c2"><path d="M 549.242188 262.714844 L 567.660156 240.914062 L 596.898438 265.621094 L 578.480469 287.421875 Z M 549.242188 262.714844 " clip-rule="nonzero"/></clipPath><clipPath id="5094e4ddcf"><path d="M 587.3125 276.542969 L 549.800781 263.140625 C 549.640625 263.082031 549.515625 262.953125 549.472656 262.785156 C 549.429688 262.621094 549.46875 262.445312 549.578125 262.316406 L 567.320312 241.316406 C 567.429688 241.183594 567.597656 241.117188 567.769531 241.132812 C 567.9375 241.148438 568.089844 241.246094 568.171875 241.394531 L 587.648438 276.140625 C 587.707031 276.246094 587.695312 276.371094 587.621094 276.460938 C 587.542969 276.550781 587.421875 276.582031 587.3125 276.542969 Z M 587.3125 276.542969 " clip-rule="nonzero"/></clipPath><clipPath id="1120f500d9"><path d="M 0.3125 0.0195312 L 38.921875 0.0195312 L 38.921875 35.753906 L 0.3125 35.753906 Z M 0.3125 0.0195312 " clip-rule="nonzero"/></clipPath><clipPath id="859061dcb1"><path d="M 0.242188 21.714844 L 18.660156 -0.0859375 L 47.898438 24.621094 L 29.480469 46.421875 Z M 0.242188 21.714844 " clip-rule="nonzero"/></clipPath><clipPath id="42ee6ba9c6"><path d="M 38.3125 35.542969 L 0.800781 22.140625 C 0.640625 22.082031 0.515625 21.953125 0.472656 21.785156 C 0.429688 21.621094 0.46875 21.445312 0.578125 21.316406 L 18.320312 0.316406 C 18.429688 0.183594 18.597656 0.117188 18.769531 0.132812 C 18.9375 0.148438 19.089844 0.246094 19.171875 0.394531 L 38.648438 35.140625 C 38.707031 35.246094 38.695312 35.371094 38.621094 35.460938 C 38.542969 35.550781 38.421875 35.582031 38.3125 35.542969 Z M 38.3125 35.542969 " clip-rule="nonzero"/></clipPath><clipPath id="72100dd341"><rect x="0" width="39" y="0" height="36"/></clipPath><clipPath id="e2939c138d"><rect x="0" width="994" y="0" height="1001"/></clipPath></defs><g clip-path="url(#1260b556a7)"><path fill="#ffffff" d="M 0.121094 0 L 993.878906 0 L 993.878906 1000.5 L 0.121094 1000.5 Z M 0.121094 0 " fill-opacity="1" fill-rule="nonzero"/><g transform="matrix(1, 0, 0, 1, 0, 0)"><g clip-path="url(#e2939c138d)"><g clip-path="url(#c316eb2cc6)"><g transform="matrix(1, 0, 0, 1, 0, 0)"><g clip-path="url(#e39df2bfea)"><g clip-path="url(#e5232e359a)"><path fill="#ff5c00" d="M 0.121094 0 L 993.320312 0 L 993.320312 1000.957031 L 0.121094 1000.957031 Z M 0.121094 0 " fill-opacity="1" fill-rule="nonzero"/></g></g></g></g><g clip-path="url(#e37dcaa7c8)"><g clip-path="url(#e816aba811)"><g clip-path="url(#8460dc20b4)"><g transform="matrix(1, 0, 0, 1, 344, 472)"><g clip-path="url(#d69b13a6d9)"><g clip-path="url(#85049bb6af)"><g clip-path="url(#d1019eb0da)"><g clip-path="url(#0e06a8a2a6)"><path fill="#ff5c00" d="M 60.710938 -26.730469 L 342.117188 109.605469 L 274.480469 249.21875 L -6.929688 112.882812 Z M 60.710938 -26.730469 " fill-opacity="1" fill-rule="nonzero"/></g></g></g></g></g></g></g></g><g clip-path="url(#cd884d3110)"><g clip-path="url(#5d91ccb6b9)"><g clip-path="url(#781b2814b3)"><g transform="matrix(1, 0, 0, 1, 527, 322)"><g clip-path="url(#0fffd1f400)"><g clip-path="url(#d5747e38e8)"><g clip-path="url(#e3e5902f1f)"><g clip-path="url(#fb9e9a8f8c)"><path fill="#ff5c00" d="M 44.398438 -35.769531 L 194.402344 23.558594 L 143.261719 152.855469 L -6.742188 93.527344 Z M 44.398438 -35.769531 " fill-opacity="1" fill-rule="nonzero"/></g></g></g></g></g></g></g></g><g clip-path="url(#5f6ef2dd80)"><g clip-path="url(#8f48e59e33)"><g clip-path="url(#a419ea3390)"><g transform="matrix(1, 0, 0, 1, 311, 93)"><g clip-path="url(#1e5a0f8c6f)"><g clip-path="url(#4fe5d8a45b)"><g clip-path="url(#f68b199594)"><g clip-path="url(#0f6f701d2a)"><path fill="#ffffff" d="M -5.132812 466.15625 L -95.738281 87.355469 L 299.339844 -7.140625 L 389.941406 371.660156 Z M -5.132812 466.15625 " fill-opacity="1" fill-rule="nonzero"/></g></g></g></g></g></g></g></g><g clip-path="url(#3d1f9978ef)"><g clip-path="url(#76727c5af9)"><g clip-path="url(#bc4e27ad6e)"><g transform="matrix(1, 0, 0, 1, 418, 411)"><g clip-path="url(#4575c7efe4)"><g clip-path="url(#b9769eff76)"><g clip-path="url(#ecfeb158f6)"><g clip-path="url(#65089706e7)"><path fill="#ff5c00" d="M 24.222656 -12.199219 L 242.148438 35.785156 L 211.515625 174.910156 L -6.410156 126.921875 Z M 24.222656 -12.199219 " fill-opacity="1" fill-rule="nonzero"/></g></g></g></g></g></g></g></g><g clip-path="url(#92dbfa39ac)"><g clip-path="url(#5c28408d71)"><g clip-path="url(#3930ff28ab)"><g transform="matrix(1, 0, 0, 1, 513, 237)"><g clip-path="url(#d8c6ad6508)"><g clip-path="url(#ee45ab1c75)"><g clip-path="url(#e4b5594842)"><g clip-path="url(#8b7123d331)"><path fill="#ff5c00" d="M 12.996094 -15.980469 L 124.0625 -0.078125 L 105.984375 126.167969 L -5.082031 110.265625 Z M 12.996094 -15.980469 " fill-opacity="1" fill-rule="nonzero"/></g></g></g></g></g></g></g></g><g transform="matrix(1, 0, 0, 1, 350, 94)"><g clip-path="url(#320d098ed8)"><g fill="#ffffff" fill-opacity="1"><g transform="translate(57.422722, 201.284035)"><g><path d="M -26.09375 -123.03125 C -23.300781 -120.800781 -20.140625 -119.535156 -16.609375 -119.234375 C -13.078125 -118.941406 -9.742188 -119.613281 -6.609375 -121.25 C -3.484375 -122.875 -1.039062 -125.21875 0.71875 -128.28125 C 2.488281 -131.351562 3.257812 -134.671875 3.03125 -138.234375 L 8.015625 -138.375 C 8.296875 -133.925781 7.3125 -129.738281 5.0625 -125.8125 C 2.820312 -121.882812 -0.296875 -118.878906 -4.296875 -116.796875 C -8.316406 -114.691406 -12.578125 -113.84375 -17.078125 -114.25 C -21.578125 -114.65625 -25.570312 -116.242188 -29.0625 -119.015625 Z M -26.09375 -123.03125 "/></g></g></g><g fill="#ffffff" fill-opacity="1"><g transform="translate(146.499017, 154.772945)"><g><path d="M -26.09375 -123.03125 C -23.300781 -120.800781 -20.140625 -119.535156 -16.609375 -119.234375 C -13.078125 -118.941406 -9.742188 -119.613281 -6.609375 -121.25 C -3.484375 -122.875 -1.039062 -125.21875 0.71875 -128.28125 C 2.488281 -131.351562 3.257812 -134.671875 3.03125 -138.234375 L 8.015625 -138.375 C 8.296875 -133.925781 7.3125 -129.738281 5.0625 -125.8125 C 2.820312 -121.882812 -0.296875 -118.878906 -4.296875 -116.796875 C -8.316406 -114.691406 -12.578125 -113.84375 -17.078125 -114.25 C -21.578125 -114.65625 -25.570312 -116.242188 -29.0625 -119.015625 Z M -26.09375 -123.03125 "/></g></g></g></g></g><g clip-path="url(#197a868054)"><g clip-path="url(#0fa4d9e6af)"><g clip-path="url(#2ecbf57238)"><g transform="matrix(1, 0, 0, 1, 506, 304)"><g clip-path="url(#e424e4cc8b)"><g clip-path="url(#f2e3f0dbb8)"><g clip-path="url(#81966170d9)"><g clip-path="url(#53e3d56ba1)"><path fill="#ffffff" d="M 0.164062 22.382812 L 18.875 0.238281 L 48.460938 25.234375 L 29.75 47.378906 Z M 0.164062 22.382812 " fill-opacity="1" fill-rule="nonzero"/></g></g></g></g></g></g></g></g><g clip-path="url(#99495b17ef)"><g clip-path="url(#f333900a3f)"><g clip-path="url(#56b307355b)"><g transform="matrix(1, 0, 0, 1, 514, 279)"><g clip-path="url(#356336f48a)"><g clip-path="url(#51ed44bf35)"><g clip-path="url(#3c4f056f7f)"><g clip-path="url(#f5a341f272)"><path fill="#ffffff" d="M -0.214844 29.585938 L 24.648438 0.15625 L 50.363281 21.882812 L 25.5 51.3125 Z M -0.214844 29.585938 " fill-opacity="1" fill-rule="nonzero"/></g></g></g></g></g></g></g></g><g clip-path="url(#087328b209)"><g clip-path="url(#9c1c3c27d5)"><g clip-path="url(#401a5a5dda)"><g transform="matrix(1, 0, 0, 1, 532, 257)"><g clip-path="url(#ea9c12d031)"><g clip-path="url(#c0de3ac53f)"><g clip-path="url(#564d3a2913)"><g clip-path="url(#8de48b768d)"><path fill="#ffffff" d="M 0.140625 29.863281 L 25.003906 0.433594 L 50.714844 22.160156 L 25.851562 51.589844 Z M 0.140625 29.863281 " fill-opacity="1" fill-rule="nonzero"/></g></g></g></g></g></g></g></g><g clip-path="url(#7f2d15e950)"><g clip-path="url(#e4fc3265c2)"><g clip-path="url(#5094e4ddcf)"><g transform="matrix(1, 0, 0, 1, 549, 241)"><g clip-path="url(#72100dd341)"><g clip-path="url(#1120f500d9)"><g clip-path="url(#859061dcb1)"><g clip-path="url(#42ee6ba9c6)"><path fill="#ffffff" d="M 0.09375 21.890625 L 18.804688 -0.257812 L 48.390625 24.738281 L 29.679688 46.886719 Z M 0.09375 21.890625 " fill-opacity="1" fill-rule="nonzero"/></g></g></g></g></g></g></g></g></g></g></g></svg>