<svg xmlns="http://www.w3.org/2000/svg" viewBox="0 0 507 578.25" preserveAspectRatio="xMidYMid meet">
  <defs>
    <clipPath id="c">
      <path d="M 398.703125 89.320312 L 483.332031 443.144531 C 484.96875 449.984375 480.75 456.855469 473.910156 458.492188 L 103.261719 547.144531 C 101.230469 547.628906 99.109375 546.832031 97.898438 545.128906 C 96.691406 543.425781 96.640625 541.160156 97.773438 539.402344 L 388.84375 87.640625 C 390.023438 85.8125 392.179688 84.859375 394.328125 85.226562 C 396.472656 85.59375 398.195312 87.203125 398.703125 89.320312 Z"/>
    </clipPath>
    <mask id="m">
      <path fill="#fff" d="M 398.703125 89.320312 L 483.332031 443.144531 C 484.96875 449.984375 480.75 456.855469 473.910156 458.492188 L 103.261719 547.144531 C 101.230469 547.628906 99.109375 546.832031 97.898438 545.128906 C 96.691406 543.425781 96.640625 541.160156 97.773438 539.402344 L 388.84375 87.640625 C 390.023438 85.8125 392.179688 84.859375 394.328125 85.226562 C 396.472656 85.59375 398.195312 87.203125 398.703125 89.320312 Z"/>
      <path fill="#000" d="M 288.875 403.417969 L 383.273438 424.203125 C 392.449219 426.222656 399.300781 433.886719 400.285156 443.230469 L 412.71875 561.195312 C 413.101562 564.820312 411.71875 568.40625 409 570.835938 C 406.285156 573.265625 402.566406 574.238281 399.007812 573.457031 L 211.90625 532.257812 C 208.347656 531.476562 205.382812 529.027344 203.9375 525.683594 C 202.492188 522.335938 202.742188 518.5 204.613281 515.371094 L 265.445312 413.539062 C 270.261719 405.472656 279.699219 401.398438 288.875 403.417969 Z"/>
      <path fill="#000" d="M 370.019531 233.078125 L 400.210938 341.148438 C 401.007812 344.011719 400.308594 347.082031 398.347656 349.316406 C 396.390625 351.550781 393.433594 352.644531 390.492188 352.222656 L 306.179688 340.148438 C 303.238281 339.726562 300.707031 337.847656 299.453125 335.15625 C 298.199219 332.460938 298.390625 329.316406 299.960938 326.792969 L 359.265625 231.539062 C 360.507812 229.539062 362.816406 228.464844 365.144531 228.800781 C 367.472656 229.132812 369.386719 230.8125 370.019531 233.078125 Z"/>
    </mask>
  </defs>
  <rect fill="#fff" x="0" y="0" width="507" height="578.25" mask="url(#m)" clip-path="url(#c)"/>
  <g transform="translate(192.378633,286.368864)">
    <path fill="#fff" d="M -26.078125 -122.953125 C -23.273438 -120.734375 -20.113281 -119.472656 -16.59375 -119.171875 C -13.070312 -118.867188 -9.742188 -119.535156 -6.609375 -121.171875 C -3.484375 -122.796875 -1.039062 -125.144531 0.71875 -128.21875 C 2.488281 -131.289062 3.265625 -134.601562 3.046875 -138.15625 L 8 -138.296875 C 8.289062 -133.847656 7.316406 -129.660156 5.078125 -125.734375 C 2.835938 -121.816406 -0.285156 -118.816406 -4.296875 -116.734375 C -8.304688 -114.640625 -12.5625 -113.789062 -17.0625 -114.1875 C -21.5625 -114.59375 -25.554688 -116.179688 -29.046875 -118.953125 Z"/>
  </g>
  <g transform="translate(281.406173,239.883225)">
    <path fill="#fff" d="M -26.078125 -122.953125 C -23.273438 -120.734375 -20.113281 -119.472656 -16.59375 -119.171875 C -13.070312 -118.867188 -9.742188 -119.535156 -6.609375 -121.171875 C -3.484375 -122.796875 -1.039062 -125.144531 0.71875 -128.21875 C 2.488281 -131.289062 3.265625 -134.601562 3.046875 -138.15625 L 8 -138.296875 C 8.289062 -133.847656 7.316406 -129.660156 5.078125 -125.734375 C 2.835938 -121.816406 -0.285156 -118.816406 -4.296875 -116.734375 C -8.304688 -114.640625 -12.5625 -113.789062 -17.0625 -114.1875 C -21.5625 -114.59375 -25.554688 -116.179688 -29.046875 -118.953125 Z"/>
  </g>
  <path fill="#fff" d="M 329.257812 331.097656 L 291.769531 317.703125 C 291.609375 317.644531 291.484375 317.511719 291.441406 317.347656 C 291.398438 317.183594 291.4375 317.007812 291.546875 316.878906 L 309.28125 295.890625 C 309.390625 295.757812 309.554688 295.691406 309.726562 295.707031 C 309.894531 295.722656 310.046875 295.820312 310.128906 295.96875 L 329.597656 330.695312 C 329.65625 330.800781 329.640625 330.925781 329.566406 331.015625 C 329.492188 331.105469 329.367188 331.136719 329.257812 331.097656 Z"/>
  <path fill="#fff" d="M 336.082031 306.519531 L 299.417969 299.800781 C 299.265625 299.769531 299.140625 299.664062 299.089844 299.519531 C 299.035156 299.371094 299.066406 299.210938 299.164062 299.09375 L 323.078125 270.789062 C 323.175781 270.671875 323.332031 270.617188 323.484375 270.640625 C 323.636719 270.667969 323.765625 270.777344 323.816406 270.921875 L 336.5625 305.949219 C 336.617188 306.09375 336.589844 306.253906 336.488281 306.371094 C 336.390625 306.492188 336.234375 306.546875 336.082031 306.519531 Z"/>
  <path fill="#fff" d="M 354.425781 284.808594 L 317.761719 278.085938 C 317.609375 278.058594 317.484375 277.953125 317.433594 277.808594 C 317.378906 277.660156 317.410156 277.5 317.507812 277.378906 L 341.421875 249.078125 C 341.519531 248.960938 341.675781 248.902344 341.828125 248.929688 C 341.980469 248.957031 342.105469 249.066406 342.160156 249.210938 L 354.90625 284.238281 C 354.960938 284.382812 354.929688 284.542969 354.832031 284.660156 C 354.734375 284.777344 354.578125 284.835938 354.425781 284.808594 Z"/>
  <path fill="#fff" d="M 372.164062 267.640625 L 334.671875 254.242188 C 334.511719 254.1875 334.390625 254.054688 334.347656 253.890625 C 334.300781 253.726562 334.339844 253.550781 334.453125 253.417969 L 352.183594 232.429688 C 352.296875 232.300781 352.460938 232.230469 352.632812 232.246094 C 352.800781 232.265625 352.953125 232.363281 353.035156 232.511719 L 372.503906 267.238281 C 372.558594 267.339844 372.546875 267.464844 372.472656 267.554688 C 372.398438 267.644531 372.273438 267.679688 372.164062 267.640625 Z"/>
</svg>
